HIERARCHY
ROOT root
{
	OFFSET	0	13.1	24.9
	CHANNELS 6  Xposition Yposition Zposition Xrotation Yrotation Zrotation
	JOINT spine_1
	{
		OFFSET	0	9.99999	0
		CHANNELS 3  Xrotation Yrotation Zrotation
		JOINT spine_2
		{
			OFFSET	0	112	-10
			CHANNELS 3  Xrotation Yrotation Zrotation
			JOINT spine_3
			{
				OFFSET	0	206.5	19.3
				CHANNELS 3  Xrotation Yrotation Zrotation
				JOINT spine_4
				{
					OFFSET	0	110.4	14.6
					CHANNELS 3  Xrotation Yrotation Zrotation
					JOINT neck_1
					{
						OFFSET	0	71.8	-50.3
						CHANNELS 3  Xrotation Yrotation Zrotation
						JOINT neck_2
						{
							OFFSET	0	86.2	-25.8
							CHANNELS 3  Xrotation Yrotation Zrotation
							JOINT head_ee
							{
								OFFSET	0	179.8	-8.7
								CHANNELS 3  Xrotation Yrotation Zrotation
								End Site
								{
									OFFSET	1	0	0
								}
							}
						}
					}
					JOINT left_clavicle
					{
						OFFSET	-43.2	22.4	-70.8
						CHANNELS 3  Xrotation Yrotation Zrotation
						JOINT left_shoulder
						{
							OFFSET	-93.9	-5.79999	48.7
							CHANNELS 3  Xrotation Yrotation Zrotation
							JOINT left_elbow
							{
								OFFSET	-291.4	-30.8	15.2
								CHANNELS 3  Xrotation Yrotation Zrotation
								JOINT left_lowarm_twist
								{
									OFFSET	-110.7	-3.89999	13.6
									CHANNELS 3  Xrotation Yrotation Zrotation
									JOINT left_hand
									{
										OFFSET	-110.7	-3.89999	13.6
										CHANNELS 3  Xrotation Yrotation Zrotation
										JOINT left_ee
										{
											OFFSET	-80.8	-5.10001	12.1
											CHANNELS 3  Xrotation Yrotation Zrotation
											End Site
											{
												OFFSET	1	0	0
											}
										}
									}
								}
							}
						}
					}
					JOINT right_clavicle
					{
						OFFSET	43.2	22.4	-70.8
						CHANNELS 3  Xrotation Yrotation Zrotation
						JOINT right_shoulder
						{
							OFFSET	93.9	-5.79999	48.7
							CHANNELS 3  Xrotation Yrotation Zrotation
							JOINT right_elbow
							{
								OFFSET	291.4	-30.8	15.2
								CHANNELS 3  Xrotation Yrotation Zrotation
								JOINT right_lowarm_twist
								{
									OFFSET	110.7	-3.89999	13.6
									CHANNELS 3  Xrotation Yrotation Zrotation
									JOINT right_hand
									{
										OFFSET	110.7	-3.89999	13.6
										CHANNELS 3  Xrotation Yrotation Zrotation
										JOINT right_ee
										{
											OFFSET	80.8	-5.10001	12.1
											CHANNELS 3  Xrotation Yrotation Zrotation
											End Site
											{
												OFFSET	1	0	0
											}
										}
									}
								}
							}
						}
					}
				}
			}
		}
	}
	JOINT left_hip
	{
		OFFSET	-82.8	-127.5	0.300001
		CHANNELS 3  Xrotation Yrotation Zrotation
		JOINT left_knee
		{
			OFFSET	-28.2	-396.7	2.2
			CHANNELS 3  Xrotation Yrotation Zrotation
			JOINT left_ankle
			{
				OFFSET	-11.7	-411.3	35.4
				CHANNELS 3  Xrotation Yrotation Zrotation
				JOINT left_toes
				{
					OFFSET	0	-60	-88.6
					CHANNELS 3  Xrotation Yrotation Zrotation
					JOINT left_foot_ee
					{
						OFFSET	-22.5	-16.5	-42.2
						CHANNELS 3  Xrotation Yrotation Zrotation
						End Site
						{
							OFFSET	1	0	0
						}
					}
				}
			}
		}
	}
	JOINT right_hip
	{
		OFFSET	82.8	-127.5	0.300001
		CHANNELS 3  Xrotation Yrotation Zrotation
		JOINT right_knee
		{
			OFFSET	28.2	-396.7	2.2
			CHANNELS 3  Xrotation Yrotation Zrotation
			JOINT right_ankle
			{
				OFFSET	11.7	-411.3	35.4
				CHANNELS 3  Xrotation Yrotation Zrotation
				JOINT right_toes
				{
					OFFSET	0	-60	-88.6
					CHANNELS 3  Xrotation Yrotation Zrotation
					JOINT right_foot_ee
					{
						OFFSET	22.5	-16.5	-42.2
						CHANNELS 3  Xrotation Yrotation Zrotation
						End Site
						{
							OFFSET	1	0	0
						}
					}
				}
			}
		}
	}
}
MOTION
Frames: 8
Frame Time: 0.02
3177.02 653.055 -1669.29 -7.62740624139 26.3101905163 5.71810870985 1.79456 0.254299 -1.4197 1.79561 0.344114 -1.40064 1.78705 0.590189 -1.31603 1.78483 0.374962 -1.3927 -6.32153 6.57444 3.6147 -6.28679 9.52824 4.89565 -0.0 0.0 -0.0 3.24921 2.3558 6.40516 -9.98299 -3.21229 76.6225 0.839262 -22.5747 0.167511 82.3148 -4.10799 -8.73483 -5.30451 25.7558 -19.975 -0.0 0.0 -0.0 1.74991 30.0863 -0.376733 -3.8749 -21.4064 -79.9656 2.47258 50.7628 -1.17323 -25.3621 1.54532 -2.82404 -3.88575 16.1187 34.8278 0.0 0.0 0.0 40.5369 -11.5448 3.27093 -11.2937 0.297793 1.70483 6.37474 9.89349 -0.917321 13.2933 -0.0 -0.0 -0.0 0.0 -0.0 -4.16757 3.95981 -11.5818 -11.2813 -0.297651 -1.70292 41.5278 -8.33229 4.99701 -8.40592 0.0 0.0 0.0 0.0 0.0 
3167.9092771 657.053 -1693.85740174 -5.44114052371 24.659418539 4.54647767402 1.50046 0.339593 -1.35451 1.50138 0.425088 -1.33016 1.49139 0.663539 -1.22873 1.48958 0.461175 -1.31808 -6.63956 7.39624 4.48766 -6.5895 10.4554 5.95012 -0.0 0.0 -0.0 3.28404 2.31106 6.46845 -10.3184 -4.12924 76.2712 0.926519 -24.6534 0.20247 81.1585 -3.97277 -8.67372 -5.31337 23.8124 -21.4985 -0.0 0.0 -0.0 1.35747 29.8787 0.452858 -5.63822 -18.908 -81.3429 2.22987 47.8391 -0.989153 -25.7632 1.57942 -2.8625 -3.94449 17.6244 35.9255 0.0 0.0 0.0 40.4475 -12.9248 3.76324 -17.7359 0.315717 2.69258 3.33265 9.4943 -0.483684 15.2378 -0.0 -0.0 -0.0 0.0 -0.0 -4.29281 6.89293 -11.6096 -16.5696 -0.320708 -2.5137 38.2936 -4.83425 4.70708 -4.79047 0.0 0.0 0.0 0.0 0.0 
3167.92379713 657.053 -1693.86278156 -5.43966786984 24.6257113445 4.5429457587 1.50046 0.339593 -1.35451 1.50138 0.425088 -1.33016 1.49139 0.663539 -1.22873 1.48958 0.461175 -1.31808 -6.63956 7.39624 4.48766 -6.5895 10.4554 5.95012 -0.0 0.0 -0.0 3.28404 2.31106 6.46845 -10.3184 -4.12924 76.2712 0.926519 -24.6534 0.20247 81.1585 -3.97277 -8.67372 -5.31337 23.8124 -21.4985 -0.0 0.0 -0.0 1.35747 29.8787 0.452858 -5.63822 -18.908 -81.3429 2.22987 47.8391 -0.989153 -25.7632 1.57942 -2.8625 -3.94449 17.6244 35.9255 0.0 0.0 0.0 40.4475 -12.9248 3.76324 -17.7359 0.315717 2.69258 3.33265 9.4943 -0.483684 15.2378 -0.0 -0.0 -0.0 0.0 -0.0 -4.29281 6.89293 -11.6096 -16.5696 -0.320708 -2.5137 38.2936 -4.83425 4.70708 -4.79047 0.0 0.0 0.0 0.0 0.0 
3156.84714289 654.58 -1714.64435521 -5.16988255239 22.8928989947 4.37877670691 1.34499 0.245003 -1.31978 1.3459 0.328481 -1.30152 1.33838 0.566533 -1.21694 1.33651 0.367248 -1.29112 -6.24629 8.61768 5.77741 -6.15825 11.7195 7.44746 -0.0 0.0 -0.0 3.48983 0.98677 6.78498 -8.8752 -4.83147 75.5185 0.998809 -26.3248 0.233582 80.3755 -3.8819 -8.63079 -5.25345 21.7847 -22.6374 -0.0 0.0 -0.0 1.28061 29.7228 0.603299 -6.81602 -16.3127 -82.442 2.0746 45.7771 -0.875937 -26.3568 1.63038 -2.919 -3.99851 18.7095 36.7998 0.0 0.0 0.0 40.5061 -13.8955 3.98968 -22.1066 0.264666 3.3611 0.540398 9.25312 -0.0789891 16.2268 -0.0 -0.0 -0.0 0.0 -0.0 -4.4636 9.9958 -10.6793 -20.1399 -0.293949 -3.06077 36.7236 -2.34016 4.56905 -2.13054 0.0 0.0 0.0 0.0 0.0 
3146.08378535 654.357 -1733.21882623 -4.38466527722 20.2490443278 2.88163915944 1.10406 0.212368 -1.11843 1.10471 0.283101 -1.10265 1.09925 0.488963 -1.02806 1.09792 0.320474 -1.09237 -6.24926 9.81626 6.00591 -6.15254 13.778 7.90355 -0.0 0.0 -0.0 3.61581 0.809953 7.01696 -8.72032 -4.85207 75.0978 1.06177 -27.7423 0.262201 78.6644 -3.68544 -8.5327 -5.07411 18.432 -23.9071 -0.0 0.0 -0.0 1.23919 29.5988 0.680175 -7.21548 -14.4455 -82.5447 1.90379 43.3176 -0.756083 -28.1992 1.79226 -3.09096 -3.7912 18.823 35.1737 0.0 0.0 0.0 40.6833 -14.8521 4.35194 -25.069 0.20114 3.81121 -0.339234 11.3847 0.0497502 15.2464 -0.0 -0.0 -0.0 0.0 -0.0 -5.05932 12.7268 -10.8154 -20.9606 -0.282984 -3.18621 35.5583 -1.37279 4.46384 -0.418342 0.0 0.0 0.0 0.0 0.0 
3135.05739692 652.247 -1751.63560792 -4.08054601632 17.2150373525 2.90714852531 0.936616 0.186889 -0.997235 0.937135 0.249964 -0.983324 0.932856 0.436244 -0.916029 0.931799 0.286107 -0.973424 -5.78455 10.9268 6.04812 -5.67433 15.7216 8.10761 -0.0 0.0 -0.0 3.88425 0.311058 7.5079 -7.99332 -4.87222 74.0941 1.10715 -28.7417 0.283676 77.0723 -3.50533 -8.4362 -4.91925 15.6207 -24.8346 -0.0 0.0 -0.0 1.18804 29.4979 0.780622 -7.28452 -13.414 -81.5048 1.75957 41.0731 -0.659201 -29.5052 1.91032 -3.20969 -3.5781 18.9143 33.5237 0.0 0.0 0.0 40.2631 -15.6973 5.08815 -28.0502 0.113797 4.26034 -0.60775 12.8601 0.089332 14.634 -0.0 -0.0 -0.0 0.0 -0.0 -5.10894 14.6551 -10.9863 -21.1774 -0.279786 -3.21933 34.7293 -0.703355 4.38799 0.782884 -0.0 -0.0 0.0 0.0 0.0 
3135.99394711 652.247 -1752.10619518 -4.06652976146 16.5668942684 2.85890909638 0.936616 0.186889 -0.997235 0.937135 0.249964 -0.983324 0.932856 0.436244 -0.916029 0.931799 0.286107 -0.973424 -5.78455 10.9268 6.04812 -5.67433 15.7216 8.10761 -0.0 0.0 -0.0 3.88425 0.311058 7.5079 -7.99332 -4.87222 74.0941 1.10715 -28.7417 0.283676 77.0723 -3.50533 -8.4362 -4.91925 15.6207 -24.8346 -0.0 0.0 -0.0 1.18804 29.4979 0.780622 -7.28452 -13.414 -81.5048 1.75957 41.0731 -0.659201 -29.5052 1.91032 -3.20969 -3.5781 18.9143 33.5237 0.0 0.0 0.0 40.2631 -15.6973 5.08815 -28.0502 0.113797 4.26034 -0.60775 12.8601 0.089332 14.634 -0.0 -0.0 -0.0 0.0 -0.0 -5.10894 14.6551 -10.9863 -21.1774 -0.279786 -3.21933 34.7293 -0.703355 4.38799 0.782884 -0.0 -0.0 0.0 0.0 0.0 
3129.14948073 651.157 -1776.71635331 -4.53607325876 14.1623974541 2.65303097065 1.12857 -0.0402669 -0.879175 1.129 0.0157566 -0.879955 1.12882 0.183443 -0.860767 1.12779 0.0452041 -0.878935 -4.60708 11.8379 5.85397 -4.46713 17.3181 7.94248 -0.0 0.0 -0.0 4.31072 -1.84179 8.23287 -7.29997 -4.43252 73.6942 1.14101 -29.4753 0.30015 75.9586 -3.38096 -8.36574 -4.86562 14.3714 -25.3217 -0.0 0.0 -0.0 2.1227 28.5373 -1.34996 -7.40486 -12.4085 -80.7631 1.50726 36.7445 -0.500614 -32.2126 2.16358 -3.44715 -3.41305 18.6002 32.1138 0.0 0.0 0.0 39.7208 -17.0986 5.51867 -30.0905 0.0405915 4.56489 -0.57509 14.0494 0.0846792 14.2041 -0.0 -0.0 -0.0 0.0 -0.0 -5.13689 17.2965 -9.27365 -22.8948 -0.250038 -3.48117 34.476 -1.26921 4.35982 1.93788 -0.0 -0.0 0.0 0.0 0.0 
